<?xml version="1.0" encoding="UTF-8"?>
<!DOCTYPE svg  PUBLIC '-//W3C//DTD SVG 1.1//EN'  'http://www.w3.org/Graphics/SVG/1.1/DTD/svg11.dtd'>
<svg enable-background="new 0 0 21.7 18.2" version="1.1" viewBox="0 0 21.7 18.2" xml:space="preserve" xmlns="http://www.w3.org/2000/svg">
<g clip-rule="evenodd" fill-rule="evenodd">
	<path d="m19.6 18.15c-0.067-0.067-0.2-0.183-0.4-0.35-0.2-0.166-0.316-0.3-0.351-0.399-0.1-0.267-0.033-0.667 0.2-1.2 0.167-0.533 0.283-0.851 0.351-0.95-0.034 0.033-0.117 0.083-0.25 0.15-0.6 0.366-1.034 0.599-1.3 0.699-0.466 0.167-0.883 0.184-1.25 0.051-0.133-0.067-0.216-0.2-0.25-0.4-0.033-0.134-0.033-0.267 0-0.4 0.067-0.267 0.317-0.449 0.75-0.55 0.5-0.133 0.983-0.316 1.45-0.55 0.134-0.066 0.2-0.184 0.2-0.35 0.033-0.167 0.1-0.284 0.2-0.351l0.7-0.2c0.6 0.067 1.283 0.067 2.05 0-0.367 1.134-0.816 2.2-1.351 3.2-0.333 0.634-0.449 1.101-0.35 1.4 0.033 0.133 0.1 0.217 0.2 0.25l-0.599-0.05zm-1.7-5.15c0.031 0.031 0.081 0.048 0.149 0.05h-0.249l0.1-0.05z" fill="#DDD5C2"/>
		<radialGradient id="a" cx="14.5" cy="9.7002" r="12.212" gradientTransform="matrix(1 0 0 -.999 0 19.39)" gradientUnits="userSpaceOnUse">
		<stop stop-color="#BEA154" offset="0"/>
		<stop stop-color="#ECC868" offset=".6431"/>
		<stop stop-color="#BEA154" offset="1"/>
	</radialGradient>
	<path d="m7.65 4.1l0.55 0.2 0.15 0.1c0.833 0.467 2.383 1.35 4.65 2.65l0.2 0.15 1.7 1.4c0.166 0.133 0.833 0.617 2 1.45 1 0.767 1.683 1.316 2.05 1.65-0.334 0.033-0.733 0.149-1.2 0.35-0.366 0.233-0.934 0.517-1.7 0.851-0.366 0.133-0.733 0.233-1.1 0.3-0.233 0.1-0.4 0.166-0.5 0.2-0.167-0.034-0.283-0.034-0.351 0l-0.149 0.149c-0.5 0-0.834 0.033-1 0.101-0.134 0.133-0.233 0.199-0.3 0.199-0.034 0.034-0.184 0.051-0.45 0.051-1.167 0-1.934-0.034-2.3-0.101h-0.75c-0.267-0.033-0.5-0.083-0.7-0.149-0.1-0.067-0.383-0.15-0.85-0.25-0.333-0.101-0.583-0.217-0.75-0.351-0.1-0.066-0.2-0.233-0.3-0.5-0.067-0.234-0.15-0.383-0.25-0.45-0.133-0.066-0.333-0.083-0.6-0.05-0.267 0-0.467-0.017-0.6-0.05-0.2-0.1-0.3-0.25-0.3-0.45 0-0.233-0.017-0.416-0.05-0.55-0.333 0-0.55-0.1-0.65-0.3 0.033-0.233 0.033-0.4 0-0.5-0.067-0.134-0.25-0.217-0.55-0.25-0.367-0.034-0.6-0.117-0.7-0.25-0.067-0.1-0.183-0.3-0.35-0.6-0.1-0.233-0.233-0.417-0.4-0.55-0.254-0.19-0.496-0.382-0.725-0.575-0.042-0.123-0.084-0.248-0.125-0.375-0.367-1.167-0.233-2.25 0.4-3.25 0.1-0.167 0.233-0.35 0.4-0.55 0.3-0.333 0.7-0.7 1.2-1.1 0.267-0.067 0.483-0.167 0.65-0.3 0.167-0.066 0.367-0.133 0.6-0.2l0.65-0.15c0.3-0.066 0.717-0.267 1.25-0.6 0.1-0.067 0.25-0.117 0.45-0.15 0.167-0.033 0.3-0.066 0.4-0.1 0.067-0.067 0.15-0.167 0.25-0.3s0.233-0.2 0.4-0.2c0.233-0.034 0.567-0.034 1 0 0.133-0.034 0.3-0.083 0.5-0.15 0.367-0.033 0.917-0.017 1.65 0.05l1.15 0.05c0.467 0 0.85 0.05 1.149 0.15l1 0.35c0.067 0 0.334 0.1 0.801 0.3 0.333 0.167 0.6 0.233 0.8 0.2 0.133-0.033 0.2-0.083 0.2-0.15-0.233-0.133-0.5-0.25-0.801-0.35 0.7 0.167 1.483 0.617 2.351 1.35 0.584 0.478 0.934 0.861 1.05 1.15-0.066 0.233-0.184 0.35-0.35 0.35-0.134 0-0.334-0.117-0.601-0.35-0.3-0.233-0.717-0.483-1.25-0.75l-0.749-0.25 0.4 0.3c0.3 0.267 0.467 0.517 0.5 0.75 0.066 0.333-0.184 0.733-0.75 1.2-0.634 0.5-1.334 0.75-2.101 0.75s-1.583-0.2-2.449-0.6c-0.766-0.333-1.45-0.75-2.05-1.25-0.333-0.3-0.7-0.45-1.1-0.45-0.667-0.333-1.267-0.434-1.8-0.3-0.2 0.067-0.534 0.267-1 0.6-0.167 0.1-0.017 0.167 0.45 0.2 0.8 0.067 1.383 0.15 1.75 0.25zm9.05 1.4c0.166-0.067 0.316-0.133 0.45-0.2l-0.075 0.075c-0.128 0.053-0.253 0.094-0.375 0.125zm-3.15-3.85c0.367-0.167 0.367-0.3 0-0.4l-0.5 0.25c-0.067 0.3 0.1 0.35 0.5 0.15zm-3.25 0.5l-0.4-0.1-0.15 0.25c-0.033 0.1 0 0.184 0.1 0.25 0.066 0.067 0.25 0.1 0.55 0.1 0.034-0.267 0-0.433-0.1-0.5zm1.3-0.7h-0.7c-0.034 0.233 0.25 0.35 0.85 0.35 0.033-0.2-0.017-0.317-0.15-0.35zm-2.25-0.65l-0.35 0.35c0.067 0.1 0.333 0.133 0.8 0.1 0-0.2-0.017-0.317-0.05-0.35-0.067-0.067-0.2-0.1-0.4-0.1zm-1.55 1l-0.25 0.25c-0.2 0-0.3 0.067-0.3 0.2-0.033 0.2 0.15 0.35 0.55 0.45 0.367 0.033 0.567-0.1 0.6-0.4 0.067-0.367-0.133-0.533-0.6-0.5zm-1.7 3.15c-0.133 0.267-0.117 0.466 0.05 0.6 0.167 0.1 0.383 0.15 0.65 0.15 0.1 0 0.333 0.017 0.7 0.05 0.3 0.033 0.5 0 0.6-0.1 0.033-0.033 0.083-0.117 0.15-0.25 0.033-0.133 0.05-0.217 0.05-0.25-0.033-0.067-0.1-0.15-0.2-0.25-0.1-0.067-0.15-0.133-0.15-0.2l-0.5-0.25c-0.4 0-0.65 0.017-0.75 0.05-0.3 0.067-0.5 0.217-0.6 0.45zm-2.875 5.975c0.069 0.095 0.144 0.185 0.225 0.275-0.083-0.083-0.158-0.167-0.225-0.25v-0.025zm0.975-7.775c-0.267 0.133-0.483 0.317-0.65 0.55-0.367 0.466-0.367 0.883 0 1.25l0.8 0.95c-0.133-0.2-0.25-0.467-0.35-0.8-0.2-0.667-0.133-1.317 0.2-1.95zm-0.25 3.3c-0.2 0.2-0.133 0.35 0.2 0.45 0.3 0.067 0.434-0.083 0.4-0.45h-0.6zm-0.1 1.2l-0.4 0.05c-0.333-0.067-0.5 0.15-0.5 0.65-0.033 0.5 0.217 0.683 0.75 0.55 0.233-0.066 0.367-0.267 0.4-0.6 0.033-0.3-0.05-0.517-0.25-0.65zm3.85 0c-0.034 0.2 0.083 0.3 0.35 0.3 0.367 0.067 0.533-0.15 0.5-0.65l-0.5-0.1c-0.233 0.1-0.35 0.25-0.35 0.45zm-1.6 1c-0.267 0.167-0.417 0.267-0.45 0.3-0.167 0.167-0.267 0.35-0.3 0.55-0.033 0.4 0.133 0.667 0.5 0.8 0.267 0.1 0.45 0.134 0.55 0.1 0.067-0.067 0.133-0.217 0.2-0.45 0.133-0.5 0.133-0.833 0-1l-0.5-0.3zm1.1-2.45l-0.6 0.25c-0.367-0.333-0.684-0.133-0.95 0.6-0.267 0.667-0.05 1 0.65 1 0.3 0 0.517-0.033 0.65-0.1 0.2-0.1 0.35-0.283 0.45-0.55 0.133-0.5 0.067-0.9-0.2-1.2zm0.1 4.2c-0.133 0.3-0.15 0.533-0.05 0.699 0.1 0.233 0.333 0.301 0.7 0.2 0.1-0.467 0.117-0.8 0.05-1-0.1-0.165-0.233-0.299-0.4-0.399s-0.333-0.133-0.5-0.1l0.2 0.6zm2-0.75c-0.1-0.033-0.183-0.017-0.25 0.05s-0.083 0.15-0.05 0.25c0.1 0.3 0.5 0.383 1.2 0.25 0.033-0.233 0-0.434-0.101-0.6-0.099-0.1-0.282-0.2-0.549-0.3l-0.25 0.35zm0 2.05c-0.1 0.033-0.167 0.066-0.2 0.1l-0.05 0.4c-0.067 0.133-0.05 0.217 0.05 0.25 0.066 0.033 0.183 0.05 0.35 0.05h0.25l0.1-0.2c0.067-0.333-0.017-0.533-0.25-0.6h-0.25z" fill="url(#a)"/>
	<path d="m3.25 2.7c0.133-0.1 0.267-0.184 0.4-0.25l1.4-0.9c0.333-0.233 0.7-0.45 1.1-0.65 1.467-0.767 3.25-1 5.35-0.7 1.1 0.2 2.384 0.517 3.85 0.95 0.301 0.1 0.567 0.217 0.801 0.35 0 0.067-0.067 0.117-0.2 0.15-0.2 0.033-0.467-0.033-0.8-0.2-0.467-0.2-0.733-0.3-0.801-0.3l-1-0.35c-0.3-0.1-0.683-0.15-1.149-0.15l-1.151-0.05c-0.734-0.067-1.283-0.083-1.65-0.05-0.2 0.067-0.367 0.117-0.5 0.15-0.433-0.034-0.767-0.034-1 0-0.167 0-0.3 0.066-0.4 0.2s-0.183 0.233-0.25 0.3c-0.1 0.033-0.233 0.066-0.4 0.1-0.2 0.033-0.35 0.083-0.45 0.15-0.533 0.333-0.95 0.533-1.25 0.6l-0.65 0.15c-0.233 0.067-0.433 0.133-0.6 0.2-0.167 0.133-0.383 0.233-0.65 0.3z" fill="#ECD16E"/>
	<path d="m17.075 5.375l0.075-0.075c-0.134 0.067-0.284 0.133-0.45 0.2l-1.65 0.55c-0.066 0-0.35 0.05-0.85 0.15-1.066 0.133-2.15-0.2-3.25-1-0.601-0.434-1.217-0.767-1.85-1-0.667-0.3-1.183-0.4-1.55-0.3-0.233 0.033-0.2 0.1 0.1 0.2-0.367-0.1-0.95-0.183-1.75-0.25-0.467-0.033-0.617-0.1-0.45-0.2 0.466-0.333 0.8-0.533 1-0.6 0.533-0.133 1.133-0.033 1.8 0.3 0.4 0 0.767 0.15 1.1 0.45 0.6 0.5 1.284 0.917 2.05 1.25 0.866 0.4 1.683 0.6 2.449 0.6s1.467-0.25 2.101-0.75c0.566-0.467 0.816-0.867 0.75-1.2-0.033-0.233-0.2-0.483-0.5-0.75l-0.4-0.3 0.75 0.25c0.533 0.267 0.95 0.517 1.25 0.75 0.266 0.233 0.467 0.35 0.6 0.35 0.166 0 0.283-0.117 0.35-0.35 0.033 0.067 0.05 0.133 0.05 0.2v0.05c0 0.167-0.083 0.333-0.25 0.5-0.033 0.033-0.066 0.05-0.1 0.05-0.101 0.1-0.517 0.383-1.25 0.85l-0.3 0.2c0.056-0.056 0.115-0.098 0.175-0.125zm-8.875-1.075c0.966 0.3 1.683 0.6 2.149 0.9l0.25 0.15c0.667 0.433 1.467 1 2.4 1.7-2.267-1.3-3.817-2.183-4.65-2.65l-0.149-0.1z" fill="#B3933E"/>
	<path d="m13 7.05c-0.934-0.7-1.733-1.267-2.4-1.7l-0.25-0.15c-0.467-0.3-1.183-0.6-2.15-0.9l-0.55-0.2c-0.3-0.1-0.333-0.167-0.1-0.2 0.367-0.1 0.883 0 1.55 0.3 0.633 0.233 1.25 0.566 1.85 1 1.1 0.8 2.184 1.133 3.25 1 0.5-0.1 0.783-0.15 0.85-0.15l1.65-0.55c0.122-0.031 0.247-0.072 0.375-0.125-0.06 0.027-0.119 0.069-0.175 0.125l-0.15 0.05c-0.667 0.467-1.45 0.883-2.35 1.25l-1.2 0.4-0.2-0.15z" fill="#8D7431"/>
	<path d="m11.6 1.45c0.134 0.033 0.184 0.15 0.15 0.35-0.6 0-0.884-0.117-0.85-0.35h0.7zm-1.3 0.7c0.101 0.067 0.134 0.233 0.101 0.5-0.301 0-0.484-0.033-0.55-0.1-0.101-0.067-0.134-0.15-0.101-0.25l0.15-0.25 0.4 0.1zm3.25-0.5c-0.399 0.2-0.566 0.15-0.5-0.15l0.5-0.25c0.367 0.1 0.367 0.233 0 0.4zm-7.45 3.3c0.1-0.233 0.3-0.383 0.6-0.45 0.1-0.033 0.35-0.05 0.75-0.05l0.5 0.25c0 0.067 0.05 0.133 0.15 0.2 0.1 0.1 0.167 0.183 0.2 0.25 0 0.033-0.017 0.117-0.05 0.25-0.067 0.133-0.117 0.217-0.15 0.25-0.1 0.1-0.3 0.133-0.6 0.1-0.367-0.033-0.6-0.05-0.7-0.05-0.267 0-0.483-0.05-0.65-0.15-0.167-0.133-0.183-0.333-0.05-0.6zm1.7-3.15c0.467-0.033 0.667 0.133 0.6 0.5-0.033 0.3-0.233 0.433-0.6 0.4-0.4-0.1-0.583-0.25-0.55-0.45 0-0.133 0.1-0.2 0.3-0.2l0.25-0.25zm1.55-1c0.2 0 0.333 0.034 0.4 0.1 0.033 0.033 0.05 0.15 0.05 0.35-0.466 0.033-0.733 0-0.8-0.1l0.35-0.35zm-5.5 6.85c0.2 0.133 0.283 0.35 0.25 0.65-0.033 0.333-0.167 0.533-0.4 0.6-0.533 0.133-0.783-0.05-0.75-0.55 0-0.5 0.167-0.717 0.5-0.65l0.4-0.05zm0.1-1.2h0.6c0.034 0.367-0.1 0.517-0.4 0.45-0.333-0.1-0.4-0.25-0.2-0.45zm5.35 5.25h0.25c0.233 0.066 0.317 0.267 0.25 0.6l-0.1 0.2h-0.25c-0.167 0-0.284-0.017-0.35-0.05-0.1-0.033-0.117-0.117-0.05-0.25l0.05-0.4c0.033-0.033 0.1-0.067 0.2-0.1zm0-2.05l0.25-0.35c0.267 0.1 0.45 0.2 0.55 0.3 0.101 0.167 0.134 0.367 0.101 0.6-0.701 0.133-1.101 0.05-1.201-0.25-0.033-0.1-0.017-0.183 0.05-0.25s0.15-0.083 0.25-0.05zm-2 0.75l-0.2-0.6c0.167-0.033 0.333 0 0.5 0.1s0.3 0.234 0.4 0.4c0.067 0.2 0.05 0.533-0.05 1-0.367 0.101-0.6 0.033-0.7-0.2-0.1-0.166-0.083-0.4 0.05-0.7zm-0.1-4.2c0.267 0.3 0.333 0.7 0.2 1.2-0.1 0.267-0.25 0.45-0.45 0.55-0.133 0.067-0.35 0.1-0.65 0.1-0.7 0-0.917-0.333-0.65-1 0.267-0.733 0.583-0.933 0.95-0.6l0.6-0.25zm-1.1 2.45l0.5 0.3c0.133 0.167 0.133 0.5 0 1-0.067 0.233-0.133 0.383-0.2 0.45-0.1 0.033-0.283 0-0.55-0.101-0.367-0.133-0.533-0.4-0.5-0.8 0.033-0.2 0.133-0.383 0.3-0.55 0.033-0.032 0.183-0.132 0.45-0.299zm1.6-1c0-0.2 0.117-0.35 0.35-0.45l0.5 0.1c0.034 0.5-0.133 0.717-0.5 0.65-0.267 0-0.383-0.1-0.35-0.3z" fill="#F5DC84"/>
	<path d="m19.45 12.35c0 0.034-0.017 0.051-0.05 0.051l-1.4 0.399c-0.1 0.033-0.2 0.066-0.3 0.101-0.066 0-0.117 0.017-0.15 0.05l-0.15 0.049c-0.733 0.434-1.434 0.8-2.101 1.1-0.833 0.367-1.75 0.634-2.75 0.801-0.532 0.099-1.082 0.165-1.649 0.199-1.7 0.134-3.467-0.517-5.3-1.949l-0.25-0.2c-0.1-0.066-0.184-0.134-0.25-0.2-0.167-0.134-0.333-0.267-0.5-0.4l-1.15-1.151c-0.081-0.09-0.156-0.181-0.225-0.275l-0.025-0.025c-0.379-0.434-0.712-0.875-1-1.325l-0.475-0.8c-0.14-0.27-0.265-0.545-0.375-0.825l0.025 0.025c0.229 0.193 0.471 0.384 0.725 0.575 0.167 0.133 0.3 0.317 0.4 0.55 0.167 0.3 0.283 0.5 0.35 0.6 0.1 0.133 0.333 0.216 0.7 0.25 0.3 0.033 0.483 0.116 0.55 0.25 0.033 0.1 0.033 0.267 0 0.5 0.1 0.2 0.317 0.3 0.65 0.3 0.033 0.134 0.05 0.316 0.05 0.55 0 0.2 0.1 0.351 0.3 0.45 0.133 0.033 0.333 0.05 0.6 0.05 0.267-0.033 0.466-0.017 0.6 0.05 0.1 0.067 0.184 0.217 0.25 0.45 0.1 0.267 0.2 0.434 0.3 0.5 0.167 0.134 0.417 0.25 0.75 0.35 0.467 0.1 0.75 0.183 0.85 0.25 0.2 0.066 0.433 0.116 0.7 0.149h0.75c0.367 0.066 1.133 0.101 2.3 0.101 0.267 0 0.416-0.017 0.45-0.051 0.066 0 0.166-0.066 0.3-0.199 0.166-0.067 0.5-0.101 1-0.101l0.15-0.149c0.067-0.034 0.184-0.034 0.351 0 0.1-0.034 0.267-0.101 0.5-0.2 0.366-0.066 0.733-0.167 1.1-0.3 0.767-0.334 1.334-0.617 1.7-0.851 0.467-0.2 0.866-0.316 1.2-0.35l0.1 0.1c0.265 0.267 0.399 0.451 0.399 0.551z" fill="#BB9B47"/>
	<path d="m1.375 7.975l-0.025-0.025c0.11 0.28 0.235 0.555 0.375 0.825l0.475 0.8c0.288 0.45 0.621 0.892 1 1.325l0.025 0.024v0.025l0.475 1.151c1 1.634 2.367 2.617 4.1 2.95 1.133 0.233 2.566 0.45 4.3 0.65 0.867 0.1 1.334 0.267 1.4 0.5 0.033 0.166 0.033 0.333 0 0.5-0.2 0.066-0.4 0.133-0.6 0.2-0.167-0.467-0.584-0.7-1.25-0.7-0.334 0.066-0.7 0.066-1.101 0-0.7-0.101-1.917-0.533-3.65-1.3-1.9-0.867-3.383-1.95-4.45-3.25-0.932-1.133-1.549-2.367-1.849-3.7-0.1-0.533-0.133-1.15-0.1-1.85 0-0.033 0.017-0.083 0.05-0.15 0.333-0.733 0.617-1.2 0.85-1.4l0.25-0.2c-0.633 1-0.767 2.083-0.4 3.25 0.041 0.127 0.083 0.252 0.125 0.375z" fill="#907836"/>
	<path d="m4.2 3.15c-0.333 0.633-0.4 1.283-0.2 1.95 0.1 0.333 0.217 0.6 0.35 0.8l-0.8-0.95c-0.367-0.367-0.367-0.784 0-1.25 0.167-0.233 0.383-0.417 0.65-0.55z" fill="#A28638"/>
	<path d="m12.55 14.9c0.834 0.399 1.384 0.783 1.65 1.149 0.066 0.101 0.166 0.2 0.3 0.3-0.333 0.134-0.667 0.25-1 0.351 0.033-0.167 0.033-0.334 0-0.5-0.066-0.233-0.533-0.4-1.4-0.5-1.733-0.2-3.167-0.417-4.3-0.65-1.733-0.333-3.1-1.316-4.1-2.95l-0.475-1.15c0.067 0.083 0.142 0.167 0.225 0.25l1.15 1.15c0.167 0.134 0.333 0.267 0.5 0.4 0.066 0.066 0.15 0.134 0.25 0.2l0.25 0.2c1.833 1.433 3.6 2.083 5.3 1.949 0.567-0.033 1.117-0.099 1.65-0.199zm6.9-2.55c0.166 0.301 0.149 0.617-0.05 0.95-0.534-0.033-0.967-0.116-1.301-0.25h-0.05c-0.068-2e-3 -0.118-0.019-0.149-0.05l-0.2-0.1c0.1-0.034 0.2-0.067 0.3-0.101l1.4-0.399c0.034 0 0.05-0.016 0.05-0.05z" fill="#675627"/>
	<path d="m12.9 16.9c-0.434 0.1-0.851 0.166-1.25 0.199-0.601 0.034-1.617-0.083-3.05-0.35-1.2-0.233-2.5-0.866-3.9-1.9-1.233-0.966-2.284-2.05-3.15-3.25-0.7-0.966-1.167-1.816-1.4-2.55-0.167-0.5-0.2-0.983-0.1-1.45 0.033-0.366 0.183-0.866 0.45-1.499-0.033 0.7 0 1.316 0.1 1.85 0.3 1.333 0.917 2.566 1.85 3.7 1.067 1.3 2.55 2.383 4.45 3.25 1.733 0.767 2.95 1.199 3.65 1.3 0.4 0.066 0.767 0.066 1.101 0 0.665 0 1.082 0.234 1.249 0.7z" fill="#A3873E"/>
	<path d="m19.6 18.15h-0.85c-0.223-0.016-0.456-0.049-0.7-0.101l-0.25-1.1c-0.066 0.133-0.217 0.333-0.45 0.6-0.1 0.134-0.183 0.2-0.25 0.2l-0.5-0.2c-0.112-0.046-0.229-0.097-0.35-0.149h-0.05l-0.05-0.2c0.033-0.2 0.017-0.316-0.051-0.351-0.133-0.066-0.25-0.133-0.35-0.199-0.467-0.301-0.733-0.634-0.8-1-0.101-0.334-0.066-0.551 0.1-0.65 0.134-0.1 0.384-0.2 0.75-0.3 0.2-0.134 0.5-0.367 0.9-0.7 0.133-0.066 0.383-0.267 0.75-0.6l0.35-0.351h0.3c0.334 0.134 0.767 0.217 1.301 0.25 0.074 0.025 0.158 0.042 0.25 0.05l-0.7 0.2c-0.101 0.066-0.167 0.184-0.2 0.351 0 0.166-0.066 0.283-0.2 0.35-0.467 0.233-0.95 0.417-1.45 0.55-0.433 0.101-0.683 0.283-0.75 0.55-0.033 0.134-0.033 0.267 0 0.4 0.034 0.2 0.117 0.333 0.25 0.4 0.367 0.133 0.784 0.116 1.25-0.051 0.267-0.1 0.7-0.333 1.301-0.699 0.133-0.067 0.216-0.117 0.25-0.15-0.067 0.1-0.184 0.417-0.351 0.95-0.233 0.533-0.3 0.934-0.2 1.2 0.034 0.1 0.15 0.234 0.35 0.4 0.2 0.167 0.333 0.283 0.4 0.35z" fill="#C6C0AF"/>
	<path d="m16.2 17.4c-0.767-0.334-1.334-0.684-1.7-1.051-0.134-0.1-0.233-0.199-0.3-0.3-0.267-0.366-0.816-0.75-1.65-1.149 1-0.167 1.917-0.434 2.75-0.801 0.667-0.3 1.367-0.666 2.101-1.1l0.149-0.05c0.033-0.033 0.084-0.05 0.15-0.05l0.2 0.1-0.1 0.051-0.35 0.35c-0.367 0.333-0.617 0.533-0.75 0.6-0.4 0.333-0.7 0.566-0.9 0.7-0.366 0.1-0.616 0.2-0.75 0.3-0.166 0.1-0.2 0.316-0.1 0.65 0.066 0.366 0.333 0.699 0.8 1 0.1 0.066 0.217 0.133 0.35 0.199 0.067 0.034 0.084 0.15 0.051 0.351l0.049 0.2zm1.85 0.65c-0.301-0.07-0.617-0.171-0.95-0.3 0.067 0 0.15-0.066 0.25-0.2 0.233-0.267 0.384-0.467 0.45-0.6l0.25 1.1z" fill="#858174"/>
</g>
</svg>
